<?xml version="1.0" encoding="UTF-8" standalone="no"?>
<svg width="11px" height="7px" viewBox="0 0 11 7" version="1.1" xmlns="http://www.w3.org/2000/svg" xmlns:xlink="http://www.w3.org/1999/xlink">
    <!-- Generator: Sketch 43.2 (39069) - http://www.bohemiancoding.com/sketch -->
    <title></title>
    <desc>Created with Sketch.</desc>
    <defs></defs>
    <g id="Mobile-Menu-Option-01" stroke="none" stroke-width="1" fill="none" fill-rule="evenodd">
        <g id="Interior-Page---Tab-Open" transform="translate(-275.000000, -720.000000)" fill="#666666">
            <g id="Group-2" transform="translate(260.000000, 703.000000)">
                <path d="M25.6428571,22.7857143 C25.6428571,22.9598223 25.5792417,23.1104904 25.4520089,23.2377232 C25.3247761,23.364956 25.174108,23.4285714 25,23.4285714 L16,23.4285714 C15.825892,23.4285714 15.6752239,23.364956 15.5479911,23.2377232 C15.4207583,23.1104904 15.3571429,22.9598223 15.3571429,22.7857143 C15.3571429,22.6116063 15.4207583,22.4609381 15.5479911,22.3337054 L20.0479911,17.8337054 C20.1752239,17.7064726 20.325892,17.6428571 20.5,17.6428571 C20.674108,17.6428571 20.8247761,17.7064726 20.9520089,17.8337054 L25.4520089,22.3337054 C25.5792417,22.4609381 25.6428571,22.6116063 25.6428571,22.7857143 Z" id=""></path>
            </g>
        </g>
    </g>
</svg>