<?xml version="1.0" encoding="UTF-8" standalone="no"?>
<svg width="11px" height="6px" viewBox="0 0 11 6" version="1.1" xmlns="http://www.w3.org/2000/svg" xmlns:xlink="http://www.w3.org/1999/xlink">
    <!-- Generator: Sketch 43.2 (39069) - http://www.bohemiancoding.com/sketch -->
    <title></title>
    <desc>Created with Sketch.</desc>
    <defs></defs>
    <g id="Mobile-Menu-Option-01" stroke="none" stroke-width="1" fill="none" fill-rule="evenodd">
        <g id="Interior-Page---Tab-Content" transform="translate(-275.000000, -720.000000)" fill="#666666">
            <g id="Group-2" transform="translate(260.000000, 703.000000)">
                <path d="M25.6428571,17.6428571 C25.6428571,17.8169652 25.5792417,17.9676333 25.4520089,18.0948661 L20.9520089,22.5948661 C20.8247761,22.7220989 20.674108,22.7857143 20.5,22.7857143 C20.325892,22.7857143 20.1752239,22.7220989 20.0479911,22.5948661 L15.5479911,18.0948661 C15.4207583,17.9676333 15.3571429,17.8169652 15.3571429,17.6428571 C15.3571429,17.4687491 15.4207583,17.318081 15.5479911,17.1908482 C15.6752239,17.0636154 15.825892,17 16,17 L25,17 C25.174108,17 25.3247761,17.0636154 25.4520089,17.1908482 C25.5792417,17.318081 25.6428571,17.4687491 25.6428571,17.6428571 Z" id=""></path>
            </g>
        </g>
    </g>
</svg>
