<?xml version="1.0" encoding="utf-8"?>
<!-- Generator: Adobe Illustrator 19.1.0, SVG Export Plug-In . SVG Version: 6.00 Build 0)  -->
<svg version="1.1" id="Layer_1" xmlns="http://www.w3.org/2000/svg" xmlns:xlink="http://www.w3.org/1999/xlink" x="0px" y="0px"
	 viewBox="-341 342 17 17" style="enable-background:new -341 342 17 17;" xml:space="preserve">
<style type="text/css">
	.st0{enable-background:new    ;}
	.st1{fill:#007FA9;}
</style>
<title>ï€</title>
<desc>Created with Sketch.</desc>
<g id="Mobile-Menu-Option-01">
	<g id="Lightbox-sample-item" transform="translate(-290.000000, -15.000000)">
		<g id="Group" transform="translate(286.000000, 10.000000)">
			<g class="st0">
				<path class="st1" d="M-320.5,360.1c0,0.4-0.1,0.7-0.4,0.9l-1.8,1.8c-0.2,0.2-0.6,0.4-0.9,0.4c-0.4,0-0.7-0.1-0.9-0.4l-3.9-3.9
					l-3.9,3.9c-0.2,0.2-0.6,0.4-0.9,0.4c-0.4,0-0.7-0.1-0.9-0.4l-1.8-1.8c-0.2-0.2-0.4-0.6-0.4-0.9c0-0.4,0.1-0.7,0.4-0.9l3.9-3.9
					l-3.9-3.9c-0.2-0.2-0.4-0.6-0.4-0.9s0.1-0.7,0.4-0.9l1.8-1.8c0.2-0.2,0.6-0.4,0.9-0.4c0.4,0,0.7,0.1,0.9,0.4l3.9,3.9l3.9-3.9
					c0.2-0.2,0.6-0.4,0.9-0.4c0.4,0,0.7,0.1,0.9,0.4l1.8,1.8c0.2,0.3,0.4,0.6,0.4,0.9s-0.1,0.7-0.4,0.9l-3.9,3.9l3.9,3.9
					C-320.7,359.5-320.5,359.8-320.5,360.1z"/>
			</g>
		</g>
	</g>
</g>
</svg>
