<?xml version="1.0" encoding="UTF-8" standalone="no"?>
<svg width="36px" height="35px" viewBox="0 0 36 35" version="1.1" xmlns="http://www.w3.org/2000/svg" xmlns:xlink="http://www.w3.org/1999/xlink">
    <!-- Generator: Sketch 43.2 (39069) - http://www.bohemiancoding.com/sketch -->
    <title></title>
    <desc>Created with Sketch.</desc>
    <defs></defs>
    <g id="Symbols" stroke="none" stroke-width="1" fill="none" fill-rule="evenodd">
        <g id="Mobile/Footer" transform="translate(-20.000000, -748.000000)" fill="#009933">
            <path d="M53.2455357,748.000807 C53.7663717,748.000807 54.2127958,748.186817 54.5848214,748.558843 C54.9568471,748.930868 55.1428571,749.377293 55.1428571,749.898129 L55.1428571,780.3892 C55.1428571,780.910036 54.9568471,781.35646 54.5848214,781.728486 C54.2127958,782.100511 53.7663717,782.286521 53.2455357,782.286521 L44.5178571,782.286521 L44.5178571,769.005271 L48.9598214,769.005271 L49.6294643,763.8267 L44.5178571,763.8267 L44.5178571,760.523129 C44.5178571,759.689791 44.6927066,759.064797 45.0424107,758.648129 C45.3921148,758.23146 46.0729116,758.023129 47.0848214,758.023129 L49.8080357,758.000807 L49.8080357,753.380271 C48.870531,753.246342 47.5461395,753.179379 45.8348214,753.179379 C43.8110018,753.179379 42.1927144,753.774611 40.9799107,754.965093 C39.767107,756.155575 39.1607143,757.837106 39.1607143,760.009736 L39.1607143,763.8267 L34.6964286,763.8267 L34.6964286,769.005271 L39.1607143,769.005271 L39.1607143,782.286521 L22.7544643,782.286521 C22.2336283,782.286521 21.7872042,782.100511 21.4151786,781.728486 C21.0431529,781.35646 20.8571429,780.910036 20.8571429,780.3892 L20.8571429,749.898129 C20.8571429,749.377293 21.0431529,748.930868 21.4151786,748.558843 C21.7872042,748.186817 22.2336283,748.000807 22.7544643,748.000807 L53.2455357,748.000807 Z" id=""></path>
        </g>
    </g>
</svg>