<?xml version="1.0" encoding="UTF-8" standalone="no"?>
<svg width="36px" height="35px" viewBox="0 0 36 35" version="1.1" xmlns="http://www.w3.org/2000/svg" xmlns:xlink="http://www.w3.org/1999/xlink">
    <!-- Generator: Sketch 43.2 (39069) - http://www.bohemiancoding.com/sketch -->
    <title></title>
    <desc>Created with Sketch.</desc>
    <defs></defs>
    <g id="Symbols" stroke="none" stroke-width="1" fill="none" fill-rule="evenodd">
        <g id="Mobile/Footer" transform="translate(-184.000000, -748.000000)" fill="#009933">
            <path d="M207.714286,765.143664 C207.714286,763.566275 207.156256,762.219563 206.040179,761.103486 C204.924102,759.987409 203.577389,759.429379 202,759.429379 C200.422611,759.429379 199.075898,759.987409 197.959821,761.103486 C196.843744,762.219563 196.285714,763.566275 196.285714,765.143664 C196.285714,766.721053 196.843744,768.067766 197.959821,769.183843 C199.075898,770.29992 200.422611,770.85795 202,770.85795 C203.577389,770.85795 204.924102,770.29992 206.040179,769.183843 C207.156256,768.067766 207.714286,766.721053 207.714286,765.143664 Z M210.794643,765.143664 C210.794643,767.584153 209.938997,769.660025 208.227679,771.371343 C206.51636,773.082661 204.440488,773.938307 202,773.938307 C199.559512,773.938307 197.48364,773.082661 195.772321,771.371343 C194.061003,769.660025 193.205357,767.584153 193.205357,765.143664 C193.205357,762.703176 194.061003,760.627304 195.772321,758.915986 C197.48364,757.204668 199.559512,756.349021 202,756.349021 C204.440488,756.349021 206.51636,757.204668 208.227679,758.915986 C209.938997,760.627304 210.794643,762.703176 210.794643,765.143664 Z M213.205357,755.991879 C213.205357,756.557358 213.004466,757.040984 212.602679,757.442771 C212.200891,757.844559 211.717265,758.04545 211.151786,758.04545 C210.586307,758.04545 210.102681,757.844559 209.700893,757.442771 C209.299105,757.040984 209.098214,756.557358 209.098214,755.991879 C209.098214,755.4264 209.299105,754.942773 209.700893,754.540986 C210.102681,754.139198 210.586307,753.938307 211.151786,753.938307 C211.717265,753.938307 212.200891,754.139198 212.602679,754.540986 C213.004466,754.942773 213.205357,755.4264 213.205357,755.991879 Z M202,751.081164 C201.895833,751.081164 201.326642,751.077444 200.292411,751.070004 C199.258179,751.062563 198.473217,751.062563 197.9375,751.070004 C197.401783,751.077444 196.683784,751.099765 195.783482,751.136968 C194.88318,751.17417 194.116819,751.248574 193.484375,751.360182 C192.851931,751.47179 192.319943,751.609437 191.888393,751.773129 C191.144342,752.070749 190.489586,752.502292 189.924107,753.067771 C189.358628,753.63325 188.927085,754.288006 188.629464,755.032057 C188.465773,755.463607 188.328126,755.995596 188.216518,756.628039 C188.10491,757.260483 188.030506,758.026844 187.993304,758.927146 C187.956101,759.827449 187.93378,760.545447 187.926339,761.081164 C187.918899,761.616881 187.918899,762.401844 187.926339,763.436075 C187.93378,764.470306 187.9375,765.039497 187.9375,765.143664 C187.9375,765.247831 187.93378,765.817022 187.926339,766.851254 C187.918899,767.885485 187.918899,768.670447 187.926339,769.206164 C187.93378,769.741881 187.956101,770.45988 187.993304,771.360182 C188.030506,772.260484 188.10491,773.026846 188.216518,773.659289 C188.328126,774.291733 188.465773,774.823722 188.629464,775.255271 C188.927085,775.999323 189.358628,776.654078 189.924107,777.219557 C190.489586,777.785036 191.144342,778.216579 191.888393,778.5142 C192.319943,778.677891 192.851931,778.815539 193.484375,778.927146 C194.116819,779.038754 194.88318,779.113158 195.783482,779.150361 C196.683784,779.187563 197.401783,779.209884 197.9375,779.217325 C198.473217,779.224765 199.258179,779.224765 200.292411,779.217325 C201.326642,779.209884 201.895833,779.206164 202,779.206164 C202.104167,779.206164 202.673358,779.209884 203.707589,779.217325 C204.741821,779.224765 205.526783,779.224765 206.0625,779.217325 C206.598217,779.209884 207.316216,779.187563 208.216518,779.150361 C209.11682,779.113158 209.883181,779.038754 210.515625,778.927146 C211.148069,778.815539 211.680057,778.677891 212.111607,778.5142 C212.855658,778.216579 213.510414,777.785036 214.075893,777.219557 C214.641372,776.654078 215.072915,775.999323 215.370536,775.255271 C215.534227,774.823722 215.671874,774.291733 215.783482,773.659289 C215.89509,773.026846 215.969494,772.260484 216.006696,771.360182 C216.043899,770.45988 216.06622,769.741881 216.073661,769.206164 C216.081101,768.670447 216.081101,767.885485 216.073661,766.851254 C216.06622,765.817022 216.0625,765.247831 216.0625,765.143664 C216.0625,765.039497 216.06622,764.470306 216.073661,763.436075 C216.081101,762.401844 216.081101,761.616881 216.073661,761.081164 C216.06622,760.545447 216.043899,759.827449 216.006696,758.927146 C215.969494,758.026844 215.89509,757.260483 215.783482,756.628039 C215.671874,755.995596 215.534227,755.463607 215.370536,755.032057 C215.072915,754.288006 214.641372,753.63325 214.075893,753.067771 C213.510414,752.502292 212.855658,752.070749 212.111607,751.773129 C211.680057,751.609437 211.148069,751.47179 210.515625,751.360182 C209.883181,751.248574 209.11682,751.17417 208.216518,751.136968 C207.316216,751.099765 206.598217,751.077444 206.0625,751.070004 C205.526783,751.062563 204.741821,751.062563 203.707589,751.070004 C202.673358,751.077444 202.104167,751.081164 202,751.081164 Z M219.142857,765.143664 C219.142857,768.551419 219.105655,770.910027 219.03125,772.219557 C218.88244,775.314811 217.95983,777.71062 216.263393,779.407057 C214.566956,781.103494 212.171146,782.026104 209.075893,782.174914 C207.766362,782.249319 205.407755,782.286521 202,782.286521 C198.592245,782.286521 196.233637,782.249319 194.924107,782.174914 C191.828854,782.026104 189.433044,781.103494 187.736607,779.407057 C186.04017,777.71062 185.11756,775.314811 184.96875,772.219557 C184.894345,770.910027 184.857143,768.551419 184.857143,765.143664 C184.857143,761.735909 184.894345,759.377302 184.96875,758.067771 C185.11756,754.972518 186.04017,752.576708 187.736607,750.880271 C189.433044,749.183834 191.828854,748.261225 194.924107,748.112414 C196.233637,748.038009 198.592245,748.000807 202,748.000807 C205.407755,748.000807 207.766362,748.038009 209.075893,748.112414 C212.171146,748.261225 214.566956,749.183834 216.263393,750.880271 C217.95983,752.576708 218.88244,754.972518 219.03125,758.067771 C219.105655,759.377302 219.142857,761.735909 219.142857,765.143664 Z" id=""></path>
        </g>
    </g>
</svg>