<?xml version="1.0" encoding="UTF-8" standalone="no"?>
<svg width="30px" height="25px" viewBox="0 0 30 25" version="1.1" xmlns="http://www.w3.org/2000/svg" xmlns:xlink="http://www.w3.org/1999/xlink">
    <!-- Generator: Sketch 44.1 (41455) - http://www.bohemiancoding.com/sketch -->
    <title></title>
    <desc>Created with Sketch.</desc>
    <defs></defs>
    <g id="Mobile-Menu-Option-01" stroke="none" stroke-width="1" fill="none" fill-rule="evenodd">
        <path d="M30,21.25 L30,23.75 C30,24.0885434 29.8763033,24.3815092 29.6289062,24.6289062 C29.3815092,24.8763033 29.0885434,25 28.75,25 L1.25,25 C0.911456641,25 0.61849082,24.8763033 0.37109375,24.6289062 C0.12369668,24.3815092 0,24.0885434 0,23.75 L0,21.25 C0,20.9114566 0.12369668,20.6184908 0.37109375,20.3710938 C0.61849082,20.1236967 0.911456641,20 1.25,20 L28.75,20 C29.0885434,20 29.3815092,20.1236967 29.6289062,20.3710938 C29.8763033,20.6184908 30,20.9114566 30,21.25 Z M30,11.25 L30,13.75 C30,14.0885434 29.8763033,14.3815092 29.6289062,14.6289062 C29.3815092,14.8763033 29.0885434,15 28.75,15 L1.25,15 C0.911456641,15 0.61849082,14.8763033 0.37109375,14.6289062 C0.12369668,14.3815092 0,14.0885434 0,13.75 L0,11.25 C0,10.9114566 0.12369668,10.6184908 0.37109375,10.3710938 C0.61849082,10.1236967 0.911456641,10 1.25,10 L28.75,10 C29.0885434,10 29.3815092,10.1236967 29.6289062,10.3710938 C29.8763033,10.6184908 30,10.9114566 30,11.25 Z M30,1.25 L30,3.75 C30,4.08854336 29.8763033,4.38150918 29.6289062,4.62890625 C29.3815092,4.87630332 29.0885434,5 28.75,5 L1.25,5 C0.911456641,5 0.61849082,4.87630332 0.37109375,4.62890625 C0.12369668,4.38150918 0,4.08854336 0,3.75 L0,1.25 C0,0.911456641 0.12369668,0.61849082 0.37109375,0.37109375 C0.61849082,0.12369668 0.911456641,0 1.25,0 L28.75,0 C29.0885434,0 29.3815092,0.12369668 29.6289062,0.37109375 C29.8763033,0.61849082 30,0.911456641 30,1.25 Z" id="" fill="#009933"></path>
    </g>
</svg>