<?xml version="1.0" encoding="UTF-8" standalone="no"?>
<svg width="36px" height="35px" viewBox="0 0 36 35" version="1.1" xmlns="http://www.w3.org/2000/svg" xmlns:xlink="http://www.w3.org/1999/xlink">
    <!-- Generator: Sketch 43.2 (39069) - http://www.bohemiancoding.com/sketch -->
    <title></title>
    <desc>Created with Sketch.</desc>
    <defs></defs>
    <g id="Symbols" stroke="none" stroke-width="1" fill="none" fill-rule="evenodd">
        <g id="Mobile/Footer" transform="translate(-266.000000, -748.000000)" fill="#009933">
            <path d="M294.714286,748.000807 C296.485128,748.000807 297.99925,748.629521 299.256696,749.886968 C300.514143,751.144415 301.142857,752.658536 301.142857,754.429379 L301.142857,775.85795 C301.142857,777.628792 300.514143,779.142914 299.256696,780.400361 C297.99925,781.657807 296.485128,782.286521 294.714286,782.286521 L278.53125,782.286521 C279.796137,780.471036 280.599701,778.908552 280.941964,777.599021 C281.075894,777.093066 281.470235,775.538023 282.125,772.933843 C282.437502,773.514203 282.984371,774.01271 283.765625,774.429379 C284.546879,774.846047 285.383924,775.054379 286.276786,775.054379 C288.970252,775.054379 291.16889,773.956919 292.872768,771.761968 C294.576645,769.567016 295.428571,766.788026 295.428571,763.424914 C295.428571,762.174908 295.168157,760.965843 294.647321,759.797682 C294.126485,758.629521 293.408487,757.595306 292.493304,756.695004 C291.57812,755.794701 290.443459,755.072982 289.089286,754.529825 C287.735112,753.986667 286.269353,753.715093 284.691964,753.715093 C283.144338,753.715093 281.697179,753.927144 280.350446,754.351254 C279.003714,754.775363 277.865332,755.344554 276.935268,756.058843 C276.005204,756.773132 275.20536,757.587856 274.535714,758.503039 C273.866068,759.418222 273.371281,760.370594 273.051339,761.360182 C272.731397,762.34977 272.571429,763.335624 272.571429,764.317771 C272.571429,765.835636 272.865324,767.174908 273.453125,768.335629 C274.040926,769.496349 274.907732,770.314793 276.053571,770.790986 C276.247025,770.865391 276.421874,770.865391 276.578125,770.790986 C276.734376,770.716581 276.842262,770.575213 276.901786,770.366879 C277.050596,769.712113 277.162202,769.258249 277.236607,769.005271 C277.325893,768.663008 277.244049,768.350511 276.991071,768.067771 C276.24702,767.145148 275.875,766.029087 275.875,764.719557 C275.875,762.487403 276.645082,760.57894 278.185268,758.994111 C279.725454,757.409281 281.738083,756.616879 284.223214,756.616879 C286.440487,756.616879 288.170381,757.219551 289.412946,758.424914 C290.655512,759.630277 291.276786,761.192762 291.276786,763.112414 C291.276786,765.612427 290.774559,767.740382 289.770089,769.496343 C288.76562,771.252304 287.47471,772.130271 285.897321,772.130271 C285.00446,772.130271 284.282741,771.806614 283.732143,771.159289 C283.181545,770.511965 283.010416,769.741883 283.21875,768.849021 C283.337798,768.343066 283.534969,767.654829 283.810268,766.784289 C284.085567,765.913749 284.305059,765.154828 284.46875,764.507504 C284.632441,763.860179 284.714286,763.305869 284.714286,762.844557 C284.714286,762.115387 284.517115,761.508994 284.122768,761.025361 C283.728421,760.541727 283.16667,760.299914 282.4375,760.299914 C281.529757,760.299914 280.759676,760.720297 280.127232,761.561075 C279.494789,762.401853 279.178571,763.439789 279.178571,764.674914 C279.178571,765.746348 279.357141,766.646637 279.714286,767.375807 L277.526786,776.616879 C277.169641,778.104981 277.117558,779.994843 277.370536,782.286521 L273.285714,782.286521 C271.514872,782.286521 270.00075,781.657807 268.743304,780.400361 C267.485857,779.142914 266.857143,777.628792 266.857143,775.85795 L266.857143,754.429379 C266.857143,752.658536 267.485857,751.144415 268.743304,749.886968 C270.00075,748.629521 271.514872,748.000807 273.285714,748.000807 L294.714286,748.000807 Z" id=""></path>
        </g>
    </g>
</svg>