<?xml version="1.0" encoding="UTF-8" standalone="no"?>
<svg width="36px" height="35px" viewBox="0 0 36 35" version="1.1" xmlns="http://www.w3.org/2000/svg" xmlns:xlink="http://www.w3.org/1999/xlink">
    <!-- Generator: Sketch 43.2 (39069) - http://www.bohemiancoding.com/sketch -->
    <title> copy</title>
    <desc>Created with Sketch.</desc>
    <defs></defs>
    <g id="Symbols" stroke="none" stroke-width="1" fill="none" fill-rule="evenodd">
        <g id="Mobile/Footer" transform="translate(-102.000000, -748.000000)" fill="#009933">
            <path d="M131.428571,758.759736 C130.595234,759.131761 129.694945,759.384735 128.727679,759.518664 C129.739588,758.923423 130.431546,758.052896 130.803571,756.907057 C129.836305,757.472536 128.839291,757.851997 127.8125,758.04545 C126.904757,757.063302 125.766376,756.572236 124.397321,756.572236 C123.102672,756.572236 121.997772,757.02982 121.082589,757.945004 C120.167406,758.860187 119.709821,759.965086 119.709821,761.259736 C119.709821,761.691285 119.747023,762.048425 119.821429,762.331164 C117.901776,762.226997 116.101199,761.743371 114.419643,760.880271 C112.738087,760.017172 111.30953,758.86391 110.133929,757.42045 C109.702379,758.164501 109.486607,758.953184 109.486607,759.786521 C109.486607,761.482958 110.163684,762.785029 111.517857,763.692771 C110.818449,763.67789 110.074409,763.48444 109.285714,763.112414 L109.285714,763.157057 C109.285714,764.273134 109.657734,765.266428 110.401786,766.136968 C111.145837,767.007508 112.061006,767.546937 113.147321,767.755271 C112.715772,767.87432 112.336311,767.933843 112.008929,767.933843 C111.815475,767.933843 111.5253,767.904081 111.138393,767.844557 C111.450894,768.782062 112.005204,769.555864 112.801339,770.165986 C113.597474,770.776108 114.501483,771.088605 115.513393,771.103486 C113.787194,772.442778 111.845249,773.112414 109.6875,773.112414 C109.300593,773.112414 108.928573,773.090093 108.571429,773.04545 C110.773821,774.444266 113.16963,775.143664 115.758929,775.143664 C117.425604,775.143664 118.988088,774.87953 120.446429,774.351254 C121.904769,773.822977 123.154757,773.116139 124.196429,772.230718 C125.2381,771.345297 126.134669,770.325962 126.886161,769.172682 C127.637653,768.019403 128.195683,766.814057 128.560268,765.556611 C128.924853,764.299164 129.107143,763.045456 129.107143,761.79545 C129.107143,761.527591 129.099702,761.326701 129.084821,761.192771 C130.022326,760.523125 130.803568,759.712121 131.428571,758.759736 Z M137.142857,754.429379 L137.142857,775.85795 C137.142857,777.628792 136.514143,779.142914 135.256696,780.400361 C133.99925,781.657807 132.485128,782.286521 130.714286,782.286521 L109.285714,782.286521 C107.514872,782.286521 106.00075,781.657807 104.743304,780.400361 C103.485857,779.142914 102.857143,777.628792 102.857143,775.85795 L102.857143,754.429379 C102.857143,752.658536 103.485857,751.144415 104.743304,749.886968 C106.00075,748.629521 107.514872,748.000807 109.285714,748.000807 L130.714286,748.000807 C132.485128,748.000807 133.99925,748.629521 135.256696,749.886968 C136.514143,751.144415 137.142857,752.658536 137.142857,754.429379 Z" id="-copy"></path>
        </g>
    </g>
</svg>