<?xml version="1.0" encoding="UTF-8" standalone="no"?>
<svg width="60px" height="43px" viewBox="0 0 60 43" version="1.1" xmlns="http://www.w3.org/2000/svg" xmlns:xlink="http://www.w3.org/1999/xlink">
    <!-- Generator: Sketch 44.1 (41455) - http://www.bohemiancoding.com/sketch -->
    <title></title>
    <desc>Created with Sketch.</desc>
    <defs></defs>
    <g id="Mobile-Menu-Option-01" stroke="none" stroke-width="1" fill="none" fill-rule="evenodd">
        <g id="Group-Copy" fill="#009933">
            <path d="M24.1071755,28.8152789 L40.176855,20.5148246 L24.1071755,12.1147649 L24.1071755,28.8152789 Z M30.2495117,0.1953125 C33.9681338,0.1953125 37.5594278,0.245114728 41.0235014,0.344720677 C44.487575,0.444326627 47.0274886,0.549464663 48.6433184,0.66013794 L51.0670511,0.792945209 C51.0891857,0.792945209 51.2773275,0.809545951 51.631482,0.842747934 C51.9856364,0.875949918 52.2401812,0.909151403 52.3951238,0.942353386 C52.5500663,0.975555369 52.8101446,1.0253576 53.1753665,1.09176156 C53.5405883,1.15816553 53.8560024,1.24670282 54.1216182,1.3573761 C54.3872341,1.46804938 54.6971146,1.61192248 55.0512691,1.78899972 C55.4054236,1.96607697 55.7485056,2.18188662 56.0805255,2.43643516 C56.4125453,2.6909837 56.733493,2.98426348 57.0433782,3.31628331 C57.1761861,3.44909125 57.3477271,3.65383374 57.5580063,3.93051693 C57.7682855,4.20720012 58.0892332,4.85462908 58.520859,5.87282323 C58.9524848,6.89101738 59.2457646,8.00880072 59.4007072,9.22620677 C59.5777844,10.6428247 59.7161239,12.1534923 59.8157299,13.7582548 C59.9153358,15.3630173 59.9762052,16.6191402 59.9983399,17.5266611 L59.9983399,23.3701809 C60.0204745,26.5797059 59.8212656,29.7891828 59.4007072,32.9987078 C59.2457646,34.2161139 58.9690855,35.3172965 58.5706617,36.3022887 C58.1722379,37.2872808 57.8180888,37.9679113 57.5082036,38.3442004 L57.0433782,38.9086313 C56.733493,39.2406511 56.4125453,39.5339309 56.0805255,39.7884795 C55.7485056,40.043028 55.4054236,40.2533041 55.0512691,40.419314 C54.6971146,40.5853239 54.3872341,40.7236634 54.1216182,40.8343367 C53.8560024,40.94501 53.5405883,41.0335473 53.1753665,41.0999512 C52.8101446,41.1663552 52.5445328,41.2161574 52.3785228,41.2493594 C52.2125129,41.2825614 51.9579682,41.3157629 51.614881,41.3489649 C51.2717939,41.3821668 51.0891857,41.3987676 51.0670511,41.3987676 C45.5112525,41.819326 38.5721422,42.0296021 30.2495117,42.0296021 C25.667638,41.9853328 21.6889934,41.9133963 18.3134584,41.8137903 C14.9379235,41.7141844 12.7189576,41.6311806 11.6564941,41.5647767 L10.0296051,41.4319694 L8.83433965,41.2991621 C8.03749205,41.1884889 7.43433174,41.0778172 7.02484061,40.967144 C6.61534949,40.8564707 6.05092424,40.6240603 5.33154794,40.2699058 C4.61217163,39.9157513 3.986877,39.4619977 3.45564527,38.9086313 C3.32283733,38.7758234 3.15129633,38.5710809 2.9410171,38.2943977 C2.73073787,38.0177145 2.40979019,37.3702855 1.9781644,36.3520914 C1.54653862,35.3338972 1.25325884,34.2161139 1.09831625,32.9987078 C0.921239006,31.5820899 0.782899485,30.0714223 0.683293535,28.4666598 C0.583687586,26.8618973 0.522818196,25.6057744 0.500683541,24.6982536 L0.500683541,18.8547337 C0.478548885,15.6452087 0.677757796,12.4357318 1.09831625,9.22620677 C1.25325884,8.00880072 1.52993788,6.90761813 1.92836168,5.92262596 C2.32678548,4.93763379 2.68093465,4.25700335 2.99081983,3.8807142 L3.45564527,3.31628331 C3.76553044,2.98426348 4.08647813,2.6909837 4.41849796,2.43643516 C4.7505178,2.18188662 5.09359981,1.96607697 5.4477543,1.78899972 C5.80190878,1.61192248 6.11178931,1.46804938 6.37740518,1.3573761 C6.64302104,1.24670282 6.95843515,1.15816553 7.32365697,1.09176156 C7.68887878,1.0253576 7.94895708,0.975555369 8.10389967,0.942353386 C8.25884226,0.909151403 8.51338698,0.875949918 8.86754146,0.842747934 C9.22169595,0.809545951 9.4098377,0.792945209 9.43197235,0.792945209 C14.9877709,0.394521411 21.9268813,0.1953125 30.2495117,0.1953125 Z" id=""></path>
        </g>
    </g>
</svg>